<?xml version="1.0" encoding="UTF-8" standalone="no"?>
<svg
   enable-background="new 0 0 1623.356 1307.0464"
   version="1.1"
   viewBox="0 0 1623.356 1307.0464"
   id="svg1"
   sodipodi:docname="teapot.svg"
   inkscape:version="1.4.2 (ebf0e940d0, 2025-05-08)"
   xmlns:inkscape="http://www.inkscape.org/namespaces/inkscape"
   xmlns:sodipodi="http://sodipodi.sourceforge.net/DTD/sodipodi-0.dtd"
   xmlns="http://www.w3.org/2000/svg"
   xmlns:svg="http://www.w3.org/2000/svg">
  <defs
     id="defs1" />
  <sodipodi:namedview
     id="namedview1"
     pagecolor="#ffffff"
     bordercolor="#000000"
     borderopacity="0.25"
     inkscape:showpageshadow="2"
     inkscape:pageopacity="0.0"
     inkscape:pagecheckerboard="0"
     inkscape:deskcolor="#d1d1d1"
     inkscape:zoom="0.38174822"
     inkscape:cx="772.76064"
     inkscape:cy="665.36001"
     inkscape:window-width="1260"
     inkscape:window-height="755"
     inkscape:window-x="0"
     inkscape:window-y="0"
     inkscape:window-maximized="1"
     inkscape:current-layer="svg1" />
  <path
     id="path1"
     style="fill-rule:nonzero;fill:#dca779;fill-opacity:0.18854631"
     d="M 978.52344 5.84375 C 963.08206 5.261675 947.83847 6.5985531 932.63672 10.626953 C 907.67772 17.240953 882.66003 23.643409 857.58203 29.787109 C 849.48703 31.770209 841.11986 31.918228 832.85156 30.048828 C 812.53256 25.454828 792.59356 19.435031 772.47656 14.082031 C 760.36456 10.859031 749.27523 14.114047 750.33203 30.248047 C 750.61473 34.562647 750.36874 38.912794 750.36914 43.246094 C 750.37004 53.246094 750.25026 63.247941 750.44336 73.244141 C 750.50946 76.665141 749.50949 77.553681 745.99609 77.863281 C 734.35509 78.889281 723.35085 81.261019 714.31055 90.074219 C 705.17055 98.985219 697.9493 108.57861 694.1582 120.97461 C 690.6408 132.47561 687.83628 144.12914 685.52148 155.86914 C 683.42048 166.52514 677.20022 174.51871 669.66992 181.16211 C 650.28392 198.26511 629.41184 213.37116 606.96484 226.41016 C 585.97284 238.60416 566.98294 253.41313 553.46094 274.20312 C 551.43094 277.32423 549.98641 280.43865 549.00391 284.06445 C 544.29201 301.45245 542.8944 319.1172 543.7207 337.0332 C 543.798 338.7107 543.78323 340.35738 544.67383 341.86328 C 548.74253 348.74228 552.22318 355.96389 556.89648 362.49219 C 568.82648 379.15819 580.74203 395.83445 592.58203 412.56445 C 596.96633 418.75995 596.99299 418.99001 591.17969 423.81641 C 580.59569 432.60441 571.15384 442.31223 564.46484 454.49023 C 563.23324 456.73233 562.52867 458.9071 562.20117 461.4668 C 560.46337 475.0518 561.3397 488.4328 565.4375 501.4668 C 568.5935 511.506 575.34472 518.49497 585.63672 521.26367 C 588.95782 522.15707 590.2972 523.13396 590.2832 526.75586 C 590.1509 560.75586 590.17981 594.75586 590.25391 628.75586 C 590.26001 631.57996 589.40403 633.39043 586.89062 634.79883 C 577.58962 640.01083 568.27442 645.21175 559.16602 650.74805 C 548.64402 657.14405 537.41686 662.83071 528.53516 671.31641 C 512.75116 686.39641 498.79542 703.09616 486.98242 721.66016 C 475.07542 740.37216 465.83519 760.16489 459.61719 781.33789 C 451.49719 808.98589 443.82631 836.76902 436.13281 864.54102 C 435.12891 868.16502 433.89578 869.10797 430.33398 867.50977 C 424.78388 865.01917 419.63902 866.24003 415.41602 870.55273 C 414.00602 871.99263 412.57752 872.34502 410.95312 871.66992 C 406.49993 869.81912 401.46526 868.61954 397.81836 865.71094 C 385.58136 855.95194 372.56938 846.52228 362.95508 834.36328 C 348.36708 815.91528 333.86314 796.99712 327.27344 773.57812 C 324.97874 765.42313 321.43997 757.62706 318.66797 749.59766 C 309.91897 724.25666 298.75802 699.78877 291.54492 673.88477 C 287.16992 658.17477 283.05351 642.40133 277.16211 627.11133 C 266.27011 598.84633 254.14108 571.32952 233.95508 548.22852 C 226.62408 539.83852 219.09757 531.38152 209.16797 526.04102 C 189.50897 515.46802 169.69578 505.15651 149.67578 495.28711 C 138.90578 489.97811 129.45957 484.01459 123.01367 473.18359 C 116.08467 461.53999 98.899531 461.60307 91.332031 470.01367 C 88.593631 473.05727 86.404331 476.2535 84.582031 479.7793 C 75.447031 497.4523 65.945312 514.83044 49.320312 526.89844 C 42.578313 531.79204 35.920319 536.80087 29.136719 541.63477 C 23.020719 545.99277 16.733809 550.22461 12.099609 556.19531 C 4.3249094 566.21131 4.9811406 577.75581 18.744141 582.00391 C 26.067141 584.26441 33.478144 584.23923 40.964844 584.11133 C 54.893844 583.87333 68.672203 581.36995 82.783203 583.53125 C 106.4382 587.15425 127.6058 595.64603 145.7168 611.45703 C 156.8058 621.13803 166.56658 632.11078 170.80078 646.30078 C 177.07838 667.33678 182.46287 688.60273 185.88477 710.42773 C 195.48377 771.64773 204.54183 832.93967 212.58203 894.38867 C 215.02103 913.02967 217.49211 931.72962 222.06641 950.01562 C 228.72341 976.62562 239.57788 1001.7284 250.29688 1026.8594 C 254.78287 1037.3764 261.25491 1046.937 268.81641 1055.1855 C 289.28541 1077.5145 311.72552 1097.5692 340.72852 1108.5762 C 341.03962 1108.6942 341.33438 1108.8538 341.64648 1108.9688 C 343.49348 1109.6494 343.90846 1110.734 343.63086 1112.8184 C 341.74986 1126.9354 346.50386 1129.4761 356.88086 1129.7598 C 360.20146 1129.8506 360.86298 1130.8624 359.92578 1133.9531 C 357.55788 1141.7621 355.18656 1149.5868 353.31836 1157.5234 C 352.31736 1161.7761 350.41021 1163.6405 345.97461 1163.7285 C 340.61051 1163.8347 336.12104 1166.9353 333.89844 1171.3281 C 330.96184 1177.1321 331.21447 1188.351 339.48438 1193.5215 C 344.60137 1196.7204 349.76182 1199.6419 355.26172 1201.998 C 383.38672 1214.045 410.63003 1227.8792 440.33203 1236.4902 C 503.32203 1254.7532 566.95444 1269.5107 632.02344 1277.9141 C 700.94344 1286.8154 770.13767 1292.7257 839.51367 1296.6348 C 861.62967 1297.8811 883.69817 1300.1976 905.82617 1300.9336 C 928.46017 1301.6862 951.14078 1301.0996 973.80078 1301.0996 L 973.80273 1301.1094 C 973.80203 1300.6056 973.80323 1300.1016 973.80273 1299.5977 C 995.46273 1299.5977 1017.1725 1300.5387 1038.7715 1299.3867 C 1075.0245 1297.4532 1111.1959 1294.0227 1147.4219 1291.5254 C 1188.8089 1288.6721 1230.0901 1284.68 1271.3301 1280.2852 C 1305.9091 1276.6002 1340.6907 1274.6138 1374.7617 1266.5801 C 1404.2607 1259.6241 1434.3022 1254.902 1463.6562 1247.4336 C 1499.8073 1238.2356 1535.3953 1226.9875 1570.1562 1213.1875 C 1582.3332 1208.3525 1593.6321 1202.5324 1604.4961 1195.2363 C 1612.1448 1190.0993 1615.294 1183.5186 1616.1777 1175.0391 C 1617.0657 1166.5171 1609.6081 1158.1682 1601.0801 1159.1406 C 1596.8011 1159.6286 1595.7644 1158.2713 1594.6973 1154.668 C 1559.6013 1036.158 1524.4475 917.65898 1489.1465 799.20898 C 1485.2078 785.99298 1482.5341 772.32447 1476.3086 759.85547 C 1470.6526 748.52747 1465.2184 737.0682 1459.0312 726.0332 C 1452.7133 714.7642 1448.3553 702.24667 1438.8398 692.92188 C 1431.2368 685.47187 1425.22 676.27274 1416.373 670.27734 C 1397.757 657.66134 1378.7203 645.66316 1359.7773 633.53516 C 1357.2854 631.93986 1356.1123 630.32134 1356.123 627.21094 C 1356.2386 593.70994 1356.2446 560.20994 1356.1133 526.71094 C 1356.0995 523.18034 1357.1239 521.76932 1360.6562 521.16602 C 1369.526 519.65102 1375.6842 512.74976 1378.5234 505.88086 C 1384.6701 491.00986 1385.6971 474.86214 1383.2031 458.74414 C 1383.0561 457.79504 1382.6249 456.82617 1382.1016 456.00977 C 1375.9096 446.35177 1370.2257 436.31182 1360.5879 429.38672 C 1357.3572 427.06542 1354.7085 423.94367 1351.5234 421.54688 C 1348.8463 419.53248 1348.9942 417.87847 1350.8438 415.38477 C 1355.9056 408.55977 1360.7997 401.61084 1365.6719 394.64844 C 1377.4059 377.87944 1390.8967 362.29444 1400.0371 343.77344 C 1400.9125 341.99954 1402.1273 340.40419 1402.1113 338.24219 C 1402.0018 323.44519 1403.1116 308.57103 1398.7539 294.08203 C 1397.1301 288.68403 1397.4939 282.63228 1394.6055 277.70898 C 1383.2055 258.27798 1366.5368 243.66261 1347.8418 232.09961 C 1324.8498 217.87861 1302.1447 203.47911 1281.2227 186.28711 C 1269.7507 176.85911 1261.4487 165.90497 1258.9062 150.91797 C 1257.7676 144.20497 1255.9554 137.56593 1253.9355 131.05273 C 1250.6491 120.45473 1248.3463 109.4568 1240.9961 100.4707 C 1237.0174 95.606003 1231.8043 92.301862 1227.3242 88.101562 C 1219.5912 80.851163 1209.598 79.308856 1199.791 77.910156 C 1195.9902 77.368056 1195.1669 76.371081 1195.2012 72.863281 C 1195.3528 57.364281 1195.3516 41.864234 1195.2188 26.365234 C 1195.1468 17.939734 1189.3984 12.449622 1180.9707 12.482422 C 1177.1336 12.497322 1173.3607 13.084763 1169.6406 14.164062 C 1151.8826 19.316063 1134.1447 24.540731 1116.3047 29.394531 C 1109.9287 31.129331 1103.4154 32.242881 1096.5918 31.050781 C 1081.6358 28.437881 1067.0562 24.241359 1052.2402 21.068359 C 1032.7252 16.888859 1014.1001 9.3221094 994.03711 7.0371094 C 988.83986 6.4451594 983.67056 6.037775 978.52344 5.84375 z M 748.41992 105.84766 C 750.03849 105.8997 750.67376 107.18119 750.42578 110.03906 C 750.12418 113.51556 750.33295 117.035 750.25195 120.5332 C 750.16635 124.2308 751.45571 126.39345 755.56641 126.84375 C 760.66371 127.40225 765.5271 126.62472 770.3418 125.29492 C 787.5218 120.55012 804.73031 115.89826 821.82031 110.84766 C 835.66631 106.75576 849.44089 106.93856 863.21289 110.60156 C 886.40689 116.77026 909.78514 122.31481 933.36914 126.50781 C 961.99414 131.59701 990.65937 130.45797 1019.1094 123.32617 C 1042.8524 117.37417 1066.8958 112.63094 1090.7598 107.15234 C 1098.3048 105.42024 1105.5443 105.84552 1112.8945 108.04492 C 1134.2775 114.44392 1155.7113 120.67077 1177.1113 127.00977 C 1180.2015 127.92507 1183.29 128.40924 1186.4688 127.77344 C 1192.1943 126.62794 1195.0497 123.26191 1195.25 117.38281 C 1195.3408 114.71921 1195.4046 112.04252 1195.2363 109.38672 C 1195.0497 106.44312 1196.2993 106.47854 1198.8262 106.64844 C 1212.0522 107.53844 1215.5942 118.42907 1220.2656 127.63477 C 1227.3546 141.60577 1232.6214 156.36853 1237.5215 171.26953 C 1241.7945 184.26453 1250.4247 194.63724 1260.8047 202.99414 C 1281.4747 219.63514 1304.2263 233.32108 1326.9453 246.95508 C 1341.7903 255.86308 1354.1882 267.42602 1363.5273 281.79102 C 1371.3178 293.77302 1375.0793 307.48798 1376.3496 321.83398 C 1376.6677 325.42688 1376.3713 328.45479 1374.7148 331.80859 C 1358.7968 364.03859 1337.8875 393.21455 1318.8945 423.56055 C 1312.655 433.52955 1307.0594 444.46083 1305.3066 455.54883 C 1303.2481 468.56983 1301.3205 482.74191 1308.3301 495.62891 C 1309.839 498.40311 1311.1774 501.30212 1312.2754 504.26172 C 1315.0774 511.81292 1318.5497 518.57599 1327.5547 520.18359 C 1329.6568 520.55899 1330.3273 522.1411 1330.3242 524.2793 C 1330.2824 553.4453 1330.2882 582.61134 1330.3301 611.77734 C 1330.3342 614.57704 1329.2397 615.1768 1327.1523 613.5293 C 1319.9613 607.8533 1311.7968 602.95455 1306.0293 596.06445 C 1300.8353 589.85945 1297.8463 581.53805 1295.7148 573.50195 C 1293.0284 563.37395 1291.3662 552.97914 1289.0605 542.74414 C 1288.4652 540.10144 1288.9663 538.55733 1291.1699 536.86133 C 1297.8996 531.68233 1297.8009 524.32269 1290.6602 519.61719 C 1277.0112 510.62319 1262.1606 503.72582 1247.8496 495.88672 C 1227.1016 484.52072 1205.881 473.97228 1185.502 461.98828 C 1172.31 454.23028 1160.5745 443.95886 1150.3105 432.63086 C 1142.6755 424.20446 1133.1741 420.24545 1123.1973 416.74805 C 1091.8633 405.76405 1059.9606 396.87337 1027.0156 392.16797 C 1023.8344 391.71357 1022.2 390.75136 1022.457 387.28906 C 1022.8676 381.75646 1020.4209 377.29542 1016.7148 373.41602 C 1015.2854 371.91972 1014.1567 370.56834 1015.4277 368.21094 C 1018.1678 363.12804 1017.1722 358.20006 1013.8418 353.78516 C 1011.7769 351.04796 1012.1304 349.80443 1015.3828 348.49023 C 1023.9678 345.02123 1031.5665 339.99372 1037.9395 333.16992 C 1050.9732 319.21392 1050.6093 301.15644 1037.0723 287.64844 C 1027.2003 277.79714 1015.0883 272.20032 1001.8223 268.79102 C 998.77587 268.00812 997.15173 266.69693 995.45312 263.67383 C 990.76312 255.32643 983.13038 249.92514 974.17578 246.52344 C 973.43798 246.24314 972.44674 246.17217 971.71094 246.41797 C 962.86594 249.37197 953.90226 252.16468 947.91016 260.08398 C 947.31546 260.87008 946.46652 261.77342 946.44922 262.63672 C 946.32772 268.70892 941.81117 269.66804 937.32227 271.15234 C 927.90227 274.26734 919.26236 278.90976 911.94336 285.72656 C 894.83736 301.65856 895.28925 321.96397 913.03125 337.16797 C 918.12825 341.53587 923.70764 345.16433 929.89844 347.74023 C 932.75074 348.92703 933.59147 350.08321 931.25977 352.66211 C 926.95227 357.42611 925.81374 362.9756 928.52344 368.8457 C 929.70094 371.3965 928.30997 372.10124 926.73047 373.05664 C 921.01317 376.51464 918.58256 381.70321 919.22266 388.19531 C 919.56276 391.64581 917.22717 391.41794 915.20117 391.89844 C 892.83817 397.20144 870.39767 402.20005 848.13867 407.90625 C 829.45767 412.69525 810.61398 417.28292 794.33398 428.54492 C 791.17508 430.73002 788.03218 432.84223 785.26758 435.51953 C 760.52358 459.48053 731.65067 477.62994 702.13867 494.96094 C 687.31367 503.66694 671.87161 511.12159 656.59961 518.93359 C 646.38561 524.15759 645.2745 532.16936 654.1582 539.09766 C 656.122 540.62926 656.43906 542.04561 656.22656 544.13281 C 655.34916 552.74981 655.51698 561.62439 653.42188 569.92969 C 650.58788 581.16469 646.39158 592.14659 637.39258 600.37109 C 631.84658 605.43869 625.90197 609.98368 619.76367 614.30078 C 616.62957 616.50488 615.58573 615.84403 615.61523 612.01953 C 615.72823 597.35353 615.66016 582.68553 615.66016 568.01953 L 615.6582 568.02539 C 615.6554 554.02539 615.75883 540.02434 615.58203 526.02734 C 615.53793 522.54644 616.34199 520.25923 619.93359 519.39453 C 626.13089 517.90193 628.88318 513.40814 631.83008 507.96094 C 639.63628 493.53194 642.53213 478.48883 641.17383 462.29883 C 640.83593 458.27193 640.18578 454.53556 638.85938 450.69336 C 629.42038 423.34836 611.57116 400.8247 596.53516 376.7207 C 587.09316 361.5827 577.79695 346.40066 569.75195 330.47266 C 569.01105 329.00576 567.97372 327.63726 568.22852 325.81836 C 570.72052 308.02636 575.12505 291.12155 586.12305 276.18555 C 595.24405 263.79855 606.73764 254.61788 619.55664 246.67578 C 641.79864 232.89578 664.31658 219.421 684.51758 202.75 C 694.97358 194.122 704.09467 183.73327 707.57227 169.82227 C 712.53627 149.97027 719.92497 131.16141 731.16797 113.94141 C 733.01177 111.11711 734.93861 109.07596 738.38281 108.50586 C 740.83331 108.10026 743.28105 107.41436 745.59375 106.50586 C 746.74481 106.0537 747.68421 105.824 748.41992 105.84766 z M 607.25 437.5293 C 607.95592 437.53919 608.49646 438.35892 609.04883 439.07227 C 619.46503 452.52427 623.5305 467.59427 620.6543 484.44727 C 620.2286 486.94117 618.70548 488.48946 616.27148 489.75586 L 616.27148 489.75391 C 615.06588 486.01941 615.61926 482.35639 615.72656 478.80859 C 615.83466 475.23599 614.49114 474.19212 611.08594 474.32422 C 605.43794 474.54352 599.77024 474.51144 594.11914 474.33594 C 591.02014 474.23964 590.06508 475.4691 590.14648 478.4375 C 590.30768 484.3185 590.19383 490.20649 589.67383 496.15039 C 586.72673 492.97579 584.94127 489.77559 585.00977 485.24609 C 585.18877 473.41009 589.70208 462.83969 594.10938 452.30469 C 596.48897 446.61539 602.00552 442.98205 605.97852 438.31055 C 606.46355 437.74023 606.88023 437.52412 607.25 437.5293 z M 1338.3691 439.79688 C 1339.036 439.78994 1339.7244 440.18817 1340.4766 440.88867 C 1346.2871 446.29967 1352.312 451.23043 1354.6699 459.61133 C 1356.9178 467.60133 1360.197 475.24714 1360.7051 483.71484 C 1361.0463 489.40091 1361.1031 490.20636 1356.2012 496.47266 C 1356.2012 489.82196 1356.0841 484.34316 1356.25 478.87305 C 1356.3361 476.03575 1355.2802 475.02998 1352.4922 475.08398 C 1346.3282 475.20308 1340.1592 475.20071 1333.9961 475.07031 C 1331.1782 475.01071 1330.1306 476.07147 1330.2695 478.88477 C 1330.4478 482.49597 1330.3125 486.12383 1330.3125 490.45703 C 1327.0344 488.69713 1325.1796 486.78116 1324.9395 483.75586 C 1324.1257 473.49386 1322.8665 463.31776 1328.0508 453.47656 C 1330.4226 448.97426 1333.455 445.14467 1336.3848 441.13477 C 1337.0561 440.21612 1337.7023 439.80381 1338.3691 439.79688 z M 1331.8926 748.92969 C 1374.4794 748.92969 1407.8989 758.86153 1432.1523 778.72266 C 1456.4058 798.58378 1468.5332 825.60502 1468.5332 859.78906 C 1468.5332 884.23352 1461.5621 904.95463 1447.6211 921.95117 C 1433.8711 938.94771 1414.6784 950.50217 1390.043 956.61328 C 1417.9249 963.10634 1439.6016 975.80468 1455.0703 994.71094 C 1470.73 1013.6172 1478.5586 1036.7261 1478.5586 1064.0352 C 1478.5586 1105.4762 1465.8603 1137.273 1440.4609 1159.4258 C 1415.2526 1181.5786 1379.0627 1192.6543 1331.8926 1192.6543 C 1284.7224 1192.6543 1248.4384 1181.5786 1223.0391 1159.4258 C 1197.8307 1137.273 1185.2266 1105.4762 1185.2266 1064.0352 C 1185.2266 1036.7261 1193.0551 1013.6172 1208.7148 994.71094 C 1224.3746 975.80468 1246.1454 963.10634 1274.0273 956.61328 C 1249.2009 950.50217 1229.8179 938.94771 1215.877 921.95117 C 1202.1269 904.95463 1195.252 884.23352 1195.252 859.78906 C 1195.252 825.60502 1207.3793 798.58378 1231.6328 778.72266 C 1256.0773 758.86153 1289.4967 748.92969 1331.8926 748.92969 z M 605.43359 756.66406 L 678.19336 756.66406 L 678.19336 1035.3887 L 739.20898 1035.3887 L 739.20898 1083.5137 L 678.19336 1083.5137 L 678.19336 1184.3477 L 620.61523 1184.3477 L 620.61523 1083.5137 L 427.54297 1083.5137 L 427.54297 1027.6543 L 605.43359 756.66406 z M 938.87109 756.66406 L 996.73633 756.66406 L 996.73633 1135.6484 L 1091.2676 1135.6484 L 1091.2676 1184.3477 L 844.91211 1184.3477 L 844.91211 1135.6484 L 939.44531 1135.6484 L 939.44531 809.37305 L 836.60547 829.99805 L 836.60547 777.28906 L 938.87109 756.66406 z M 1331.8926 794.76367 C 1306.8752 794.76367 1287.3961 800.96961 1273.4551 813.38281 C 1259.7051 825.79601 1252.8301 843.07963 1252.8301 865.23242 C 1252.8301 887.38521 1259.7051 904.66883 1273.4551 917.08203 C 1287.3961 929.49523 1306.8752 935.70117 1331.8926 935.70117 C 1356.719 935.70117 1376.102 929.49523 1390.043 917.08203 C 1404.1749 904.66883 1411.2422 887.38521 1411.2422 865.23242 C 1411.2422 843.07963 1404.1749 825.79601 1390.043 813.38281 C 1376.102 800.96961 1356.719 794.76367 1331.8926 794.76367 z M 620.61523 807.08203 L 474.52148 1035.3887 L 620.61523 1035.3887 L 620.61523 807.08203 z M 1331.8926 981.24805 C 1304.3926 981.24805 1282.7179 988.59982 1266.8672 1003.3047 C 1251.2075 1018.0096 1243.377 1038.2539 1243.377 1064.0352 C 1243.377 1089.8164 1251.2075 1110.0588 1266.8672 1124.7637 C 1282.7179 1139.4685 1304.3926 1146.8203 1331.8926 1146.8203 C 1359.3926 1146.8203 1381.0673 1139.4685 1396.918 1124.7637 C 1412.7687 1109.8678 1420.6953 1089.6254 1420.6953 1064.0352 C 1420.6953 1038.2539 1412.7687 1018.0096 1396.918 1003.3047 C 1381.2582 988.59982 1359.5836 981.24805 1331.8926 981.24805 z " />
</svg>
